<svg width="23" height="24" viewBox="0 0 23 24" fill="none" xmlns="http://www.w3.org/2000/svg">
<path d="M17.8478 12.9767C17.7365 12.8652 17.6043 12.7767 17.4587 12.7163C17.3131 12.656 17.157 12.6249 16.9995 12.6249C16.8419 12.6249 16.6858 12.656 16.5402 12.7163C16.3946 12.7767 16.2624 12.8652 16.1511 12.9767L14.2383 14.8895C13.3515 14.6255 11.6967 14.0255 10.6479 12.9767C9.59912 11.9279 8.99913 10.2731 8.73513 9.38635L10.6479 7.47357C10.7594 7.36223 10.8479 7.22998 10.9083 7.08441C10.9687 6.93883 10.9998 6.78278 10.9998 6.62518C10.9998 6.46758 10.9687 6.31153 10.9083 6.16595C10.8479 6.02038 10.7594 5.88813 10.6479 5.77679L5.84796 0.976838C5.73662 0.865304 5.60437 0.776819 5.4588 0.716447C5.31322 0.656075 5.15717 0.625 4.99957 0.625C4.84197 0.625 4.68592 0.656075 4.54034 0.716447C4.39477 0.776819 4.26252 0.865304 4.15118 0.976838L0.896812 4.23121C0.440817 4.6872 0.184019 5.31359 0.193619 5.95319C0.221219 7.66197 0.673615 13.5971 5.35117 18.2747C10.0287 22.9522 15.9639 23.4034 17.6738 23.4322H17.7074C18.341 23.4322 18.9398 23.1826 19.3934 22.729L22.6478 19.4747C22.7593 19.3633 22.8478 19.2311 22.9082 19.0855C22.9686 18.9399 22.9996 18.7839 22.9996 18.6263C22.9996 18.4687 22.9686 18.3126 22.9082 18.167C22.8478 18.0215 22.7593 17.8892 22.6478 17.7779L17.8478 12.9767ZM17.6954 21.031C16.1979 21.0058 11.0739 20.6038 7.04795 16.5767C3.00879 12.5375 2.61759 7.39557 2.5936 5.92799L4.99957 3.52201L8.10274 6.62518L6.55116 8.17677C6.41011 8.3177 6.30641 8.49157 6.24942 8.68264C6.19243 8.87372 6.18396 9.07598 6.22476 9.27115C6.25356 9.40915 6.95795 12.6815 8.94993 14.6735C10.9419 16.6655 14.2143 17.3699 14.3523 17.3987C14.5473 17.4406 14.7498 17.4328 14.941 17.376C15.1323 17.3192 15.3062 17.2151 15.4467 17.0735L16.9995 15.5219L20.1026 18.6251L17.6954 21.031Z" fill="#8EC2F2"/>
</svg>
